<svg width="500" height="51" viewBox="0 0 500 51" fill="none" xmlns="http://www.w3.org/2000/svg">
<path d="M272.353 4.87457C272.42 5.31 272.384 5.75504 272.25 6.17443C272.115 6.59383 271.885 6.97605 271.578 7.29093C271.271 7.60581 270.894 7.84467 270.479 7.9886C270.063 8.13253 269.62 8.17757 269.185 8.12019H256.445V46.994C256.512 47.4422 256.473 47.8999 256.332 48.3305C256.192 48.7612 255.953 49.153 255.634 49.4748C255.316 49.7966 254.927 50.0397 254.499 50.1846C254.07 50.3295 253.614 50.3722 253.166 50.3095C252.723 50.3672 252.272 50.3203 251.85 50.1723C251.428 50.0244 251.046 49.7796 250.735 49.4576C250.424 49.1355 250.193 48.745 250.059 48.3172C249.925 47.8895 249.893 47.4364 249.965 46.994V8.12019H237.154C236.719 8.17766 236.275 8.13266 235.86 7.98873C235.445 7.84479 235.069 7.60593 234.761 7.29099C234.454 6.97606 234.224 6.59373 234.09 6.17431C233.956 5.75489 233.921 5.30989 233.988 4.87457C233.932 4.44755 233.976 4.01332 234.117 3.6063C234.257 3.19928 234.49 2.83062 234.797 2.52949C235.104 2.22835 235.477 2.00302 235.886 1.87131C236.296 1.7396 236.73 1.70519 237.154 1.77069H269.181C269.606 1.70412 270.04 1.73776 270.45 1.86899C270.86 2.00022 271.234 2.2254 271.542 2.52666C271.85 2.82793 272.083 3.19699 272.224 3.60455C272.365 4.01211 272.409 4.44695 272.353 4.87457Z" fill="#333137"/>
<path d="M326.579 15.3161C326.581 17.1365 326.209 18.9379 325.486 20.6077C324.78 22.268 323.762 23.7771 322.488 25.053C321.216 26.3255 319.721 27.3538 318.08 28.0871C316.429 28.8349 314.638 29.2195 312.827 29.2149L325.804 44.948C326.227 45.5019 326.495 46.1595 326.579 46.8523C326.577 47.2982 326.482 47.7389 326.299 48.1457C326.117 48.5526 325.852 48.9167 325.521 49.2146C325.21 49.537 324.837 49.7939 324.425 49.9702C324.014 50.1466 323.571 50.2389 323.123 50.2417C322.678 50.2611 322.237 50.1512 321.853 49.9254C321.484 49.6795 321.151 49.3828 320.865 49.0441L304.64 29.219H295.751V46.9981C295.751 49.1619 294.718 50.2438 292.653 50.2438C292.213 50.3052 291.765 50.2636 291.344 50.1223C290.923 49.9809 290.541 49.7436 290.227 49.429C289.913 49.1144 289.677 48.7312 289.536 48.3094C289.395 47.8876 289.353 47.4387 289.414 46.9981V4.88694C289.355 4.46484 289.394 4.03457 289.529 3.63027C289.664 3.22597 289.891 2.85875 290.192 2.55759C290.493 2.25644 290.86 2.02965 291.263 1.89522C291.667 1.76078 292.096 1.72235 292.517 1.783H314.167C315.92 1.76417 317.651 2.17609 319.209 2.98269C320.708 3.75956 322.038 4.82634 323.123 6.12148C324.21 7.42509 325.069 8.90381 325.663 10.4949C326.257 12.0331 326.567 13.6667 326.579 15.3161ZM320.102 15.386C320.098 14.5163 319.931 13.6552 319.611 12.847C319.285 12.0068 318.834 11.2213 318.272 10.5175C317.725 9.82696 317.057 9.24163 316.301 8.78992C315.557 8.34596 314.707 8.11434 313.841 8.12021H295.753V22.7236H313.702C314.59 22.7247 315.463 22.4939 316.235 22.0539C317.024 21.6172 317.721 21.0295 318.285 20.3243C318.852 19.6123 319.304 18.8151 319.623 17.9619C319.937 17.1396 320.1 16.2667 320.102 15.386Z" fill="#333137"/>
<path d="M350.114 5.01634C350.114 3.22382 348.665 1.77069 346.877 1.77069C345.089 1.77069 343.64 3.22382 343.64 5.01634V46.8523C343.64 48.6448 345.089 50.0979 346.877 50.0979C348.665 50.0979 350.114 48.6448 350.114 46.8523V5.01634Z" fill="#333137"/>
<path d="M380.101 18.8432C380.112 19.5316 380.352 20.1965 380.783 20.7329C381.213 21.2693 381.81 21.6464 382.479 21.8048C383.147 21.9632 383.849 21.8937 384.474 21.6073C385.098 21.321 385.61 20.8341 385.928 20.2237L388.479 15.5401L404.221 48.4505L404.245 48.4998L404.358 48.7319C404.756 49.4289 405.409 49.9436 406.178 50.1674C406.948 50.3911 407.774 50.3063 408.482 49.9309C409.19 49.5555 409.725 48.9189 409.974 48.1555C410.223 47.3921 410.166 46.5617 409.816 45.8396L409.838 45.8273L388.217 0L380.333 17.5861C380.169 17.9843 380.09 18.4126 380.101 18.8432Z" fill="#00D5F2"/>
<path d="M367.167 47.791C367.169 48.4802 367.4 49.1492 367.824 49.6919C368.247 50.2346 368.84 50.6201 369.507 50.7873C370.174 50.9545 370.877 50.8939 371.506 50.6149C372.135 50.336 372.652 49.8548 372.977 49.2475L373.064 49.0564L373.115 48.9435L381.118 31.0719C381.279 30.6988 381.366 30.2975 381.373 29.8908C381.379 29.4842 381.306 29.0803 381.157 28.702C381.008 28.3237 380.786 27.9786 380.504 27.6863C380.222 27.394 379.885 27.1603 379.513 26.9984C379.141 26.8366 378.74 26.7497 378.335 26.743C377.929 26.7362 377.526 26.8096 377.149 26.959C376.771 27.1083 376.427 27.3307 376.135 27.6135C375.844 27.8962 375.611 28.2338 375.449 28.6068L367.434 46.4661L367.454 46.4784C367.263 46.8894 367.165 47.3376 367.167 47.791Z" fill="#333137"/>
<path d="M433.538 5.98601V45.8273C433.538 48.1855 432.119 50.0959 430.369 50.0939C428.621 50.0939 427.203 48.1814 427.203 45.8273V5.99215C427.203 3.65652 428.57 1.67829 430.304 1.63104C432.46 1.56531 433.538 3.017 433.538 5.98601Z" fill="#00D5F2"/>
<path d="M429.166 44.1819C428.777 44.3269 428.423 44.5513 428.125 44.841C427.827 45.1306 427.592 45.4792 427.436 45.8644C427.279 46.2497 427.204 46.6634 427.216 47.0792C427.227 47.495 427.325 47.9039 427.502 48.28C427.77 48.8011 428.17 49.2426 428.662 49.5605C429.153 49.8784 429.719 50.0615 430.304 50.0918H451.823C452.265 50.0806 452.701 49.9873 453.11 49.8166C453.5 49.6714 453.855 49.4464 454.154 49.156C454.453 48.8656 454.688 48.5162 454.844 48.1298C455.001 47.7434 455.076 47.3286 455.064 46.9117C455.052 46.4948 454.954 46.085 454.776 45.7082C454.487 45.1524 454.049 44.6882 453.512 44.3675C452.975 44.0468 452.359 43.8823 451.734 43.8922L430.599 43.8696V43.8942C430.107 43.8902 429.619 43.9881 429.166 44.1819Z" fill="#00D5F2"/>
<path d="M478.469 5.98601V45.8273C478.469 48.1855 477.051 50.0959 475.301 50.0939C473.553 50.0939 472.136 48.1814 472.136 45.8273V5.99215C472.136 3.65652 473.503 1.67829 475.235 1.63104C477.391 1.56531 478.469 3.017 478.469 5.98601Z" fill="#00D5F2"/>
<path d="M474.1 44.1819C473.711 44.3272 473.357 44.5517 473.059 44.8414C472.761 45.1311 472.527 45.4796 472.37 45.8648C472.214 46.25 472.139 46.6635 472.15 47.0792C472.161 47.495 472.259 47.9039 472.436 48.28C472.704 48.8014 473.104 49.2431 473.596 49.561C474.088 49.8789 474.655 50.0619 475.239 50.0918H496.758C497.2 50.0805 497.637 49.9872 498.045 49.8166C498.435 49.6714 498.791 49.4464 499.089 49.156C499.388 48.8656 499.623 48.516 499.78 48.1296C499.936 47.7432 500.011 47.3283 499.999 46.9114C499.987 46.4945 499.888 46.0848 499.709 45.7082C499.42 45.1523 498.983 44.688 498.446 44.3672C497.909 44.0465 497.293 43.882 496.668 43.8922L475.53 43.8696V43.8942C475.039 43.8905 474.552 43.9884 474.1 44.1819Z" fill="#00D5F2"/>
<path d="M61.7244 47.1337C61.7244 49.6275 60.7858 50.8737 58.9085 50.8723C58.2411 50.8312 57.5964 50.6138 57.0399 50.2422C56.4835 49.8706 56.035 49.358 55.7401 48.7565L34.0573 15.7393V47.1337C34.0573 49.3454 33.0012 50.4506 30.8889 50.4492C28.8231 50.4492 27.7909 49.344 27.7922 47.1337V5.02246C27.7922 2.48347 28.7069 1.21396 30.5364 1.21396C31.1824 1.27082 31.804 1.48852 32.3448 1.84725C32.8855 2.20598 33.3284 2.69438 33.6331 3.26816L55.2421 36.4271V5.01425C55.2421 4.15345 55.5833 3.32793 56.1905 2.71926C56.7978 2.11058 57.6214 1.76863 58.4802 1.76863C59.339 1.76863 60.1626 2.11058 60.7698 2.71926C61.3771 3.32793 61.7182 4.15345 61.7182 5.01425L61.7244 47.1337Z" fill="#333137"/>
<path d="M121.414 25.9588C121.426 29.1424 120.803 32.2963 119.583 35.2357C118.398 38.1203 116.679 40.7537 114.515 42.9964C112.339 45.243 109.745 47.0407 106.879 48.2881C103.871 49.5977 100.621 50.259 97.3411 50.2293H86.2907C84.1319 50.2293 83.0526 49.194 83.0526 47.1233V5.00599C83.0526 2.93672 84.1319 1.90205 86.2907 1.90205H97.1997C100.406 1.88603 103.582 2.53434 106.527 3.80631C109.391 5.03096 112.005 6.7771 114.234 8.95624C116.457 11.1467 118.238 13.7461 119.479 16.6122C120.77 19.5576 121.429 22.7419 121.414 25.9588ZM115.148 26.1355C115.162 23.7478 114.673 21.3842 113.714 19.1985C112.783 17.0747 111.465 15.1441 109.826 13.5063C108.188 11.8738 106.252 10.5712 104.125 9.66901C101.934 8.72803 99.5745 8.24836 97.1915 8.25982H89.537V43.888H97.3493C99.7244 43.9033 102.076 43.4132 104.248 42.45C106.358 41.5203 108.28 40.2075 109.914 38.5778C111.539 36.9489 112.841 35.0257 113.751 32.9103C114.683 30.7771 115.161 28.4726 115.155 26.1438L115.148 26.1355Z" fill="#333137"/>
<path d="M174.162 32.4584C174.172 34.8154 173.683 37.1477 172.727 39.301C171.792 41.4249 170.48 43.3612 168.856 45.0158C167.238 46.6611 165.328 47.9889 163.224 48.9311C161.089 49.8922 158.773 50.3826 156.432 50.369C154.069 50.3779 151.731 49.8879 149.569 48.9311C147.435 48.0005 145.49 46.6853 143.83 45.0507C142.183 43.4212 140.857 41.4941 139.924 39.3708C138.962 37.1942 138.473 34.8371 138.49 32.4564V5.01216C138.49 4.15136 138.831 3.32584 139.438 2.71716C140.045 2.10849 140.869 1.76654 141.728 1.76654C142.586 1.76654 143.41 2.10849 144.017 2.71716C144.625 3.32584 144.966 4.15136 144.966 5.01216V32.5036C144.952 34.0851 145.277 35.6512 145.917 37.0968C146.517 38.4629 147.378 39.6986 148.45 40.7348C149.505 41.7471 150.733 42.5612 152.075 43.1383C153.43 43.7259 154.892 44.0266 156.369 44.0216C157.945 44.036 159.505 43.7109 160.945 43.0684C163.694 41.8526 165.873 39.6264 167.034 36.8483C167.617 35.4745 167.916 33.9965 167.913 32.5036V5.02043C167.913 2.80737 168.922 1.70014 170.94 1.69877C171.385 1.64001 171.838 1.68591 172.263 1.83287C172.687 1.97982 173.072 2.2238 173.386 2.54546C173.7 2.86711 173.935 3.25759 174.072 3.68609C174.21 4.11459 174.246 4.5693 174.178 5.01423L174.162 32.4584Z" fill="#333137"/>
<path d="M219.308 37.6104C219.325 39.3636 218.954 41.0988 218.22 42.6904C217.506 44.2279 216.478 45.5982 215.203 46.7126C213.865 47.8705 212.315 48.7565 210.639 49.3215C208.798 49.948 206.864 50.2584 204.919 50.2397C203.3 50.2262 201.696 49.9272 200.181 49.3564C198.589 48.7811 197.097 47.9598 195.758 46.9221C194.469 45.9355 193.362 44.729 192.489 43.3581C191.666 42.0872 191.226 40.6049 191.223 39.0894C191.223 37.1612 192.279 36.1971 194.391 36.1971C195.658 36.1971 196.62 37.0188 197.277 38.6621C197.728 40.3299 198.735 41.7926 200.13 42.8066C201.526 43.8207 203.226 44.3249 204.948 44.2352C206.011 44.2381 207.068 44.0717 208.079 43.7422C209.038 43.4365 209.939 42.9712 210.744 42.3659C211.503 41.7955 212.137 41.0754 212.609 40.25C213.073 39.4461 213.316 38.5332 213.314 37.6042C213.305 36.0209 212.804 34.4797 211.879 33.1959C210.836 31.7148 209.645 30.3438 208.325 29.1039C206.917 27.7632 205.368 26.4348 203.679 25.1188C202.053 23.8578 200.502 22.5031 199.033 21.0617C197.695 19.7576 196.503 18.3111 195.478 16.7479C194.541 15.3375 194.041 13.6806 194.043 11.9862C194.036 10.6042 194.349 9.23931 194.957 7.999C195.573 6.7452 196.42 5.62012 197.455 4.68355C198.521 3.7136 199.748 2.93778 201.081 2.39106C202.445 1.82516 203.908 1.53741 205.384 1.54469C206.637 1.55975 207.876 1.79838 209.045 2.24932C210.287 2.70652 211.46 3.33574 212.529 4.11865C213.54 4.84882 214.411 5.75714 215.099 6.79938C215.729 7.72545 216.072 8.8174 216.084 9.93817C216.139 10.3557 216.096 10.7803 215.958 11.1782C215.821 11.5761 215.593 11.9365 215.292 12.2308C214.992 12.5252 214.627 12.7454 214.227 12.8741C213.827 13.0028 213.403 13.0364 212.988 12.9723C212.667 12.9628 212.352 12.8819 212.066 12.7356C211.78 12.5892 211.53 12.3809 211.334 12.1259C210.842 11.5617 210.302 10.9503 209.715 10.2916C209.115 9.62128 208.456 9.00726 207.745 8.45713C206.987 7.88286 206.056 7.58435 205.106 7.61076C203.903 7.60678 202.726 7.96457 201.728 8.63787C201.248 8.92416 200.851 9.33286 200.579 9.82245C200.307 10.312 200.169 10.8651 200.179 11.4255C200.226 12.6394 200.67 13.8042 201.441 14.7409C202.533 16.1253 203.78 17.3798 205.157 18.4796C207.869 20.7379 209.996 22.5133 211.539 23.8061C213.081 25.0989 214.017 25.9103 214.344 26.2404C215.878 27.7146 217.106 29.478 217.958 31.4292C218.81 33.3803 219.268 35.4809 219.308 37.6104Z" fill="#333137"/>
<path d="M6.47423 5.15601C6.47423 3.36349 5.02495 1.91037 3.23717 1.91037C1.4494 1.91037 0.00012207 3.36349 0.00012207 5.15601V46.992C0.00012207 48.7845 1.4494 50.2376 3.23717 50.2376C5.02495 50.2376 6.47423 48.7845 6.47423 46.992V5.15601Z" fill="#333137"/>
</svg>
